<svg xmlns="http://www.w3.org/2000/svg" viewBox="0 0 1100 720" font-family="Arial, 'Microsoft YaHei', sans-serif">
  <defs>
    <marker id="arrowTeal" markerWidth="9" markerHeight="7" refX="8" refY="3.5" orient="auto">
      <polygon points="0 0, 9 3.5, 0 7" fill="#00796b"/>
    </marker>
    <marker id="arrowGrey" markerWidth="9" markerHeight="7" refX="8" refY="3.5" orient="auto">
      <polygon points="0 0, 9 3.5, 0 7" fill="#607d8b"/>
    </marker>
    <marker id="arrowTSS" markerWidth="8" markerHeight="6" refX="7" refY="3" orient="auto">
      <polygon points="0 0, 8 3, 0 6" fill="#d32f2f"/>
    </marker>
    <marker id="arrowSlate" markerWidth="7" markerHeight="6" refX="6" refY="3" orient="auto">
      <polygon points="0 0, 7 3, 0 6" fill="#475569"/>
    </marker>
    <linearGradient id="clusterGrad" x1="0" x2="1" y1="0" y2="1">
      <stop offset="0" stop-color="#e0f7fa"/>
      <stop offset="1" stop-color="#f1f8e9"/>
    </linearGradient>
    <linearGradient id="universeGrad" x1="0" x2="1" y1="0" y2="1">
      <stop offset="0" stop-color="#f8fafc"/>
      <stop offset="1" stop-color="#eef2f7"/>
    </linearGradient>
    <filter id="softShadow" x="-10%" y="-10%" width="120%" height="120%">
      <feDropShadow dx="0" dy="2" stdDeviation="3" flood-color="#0f172a" flood-opacity="0.12"/>
    </filter>

    <symbol id="motifA" viewBox="0 0 46 22">
      <rect x="1" y="2" width="44" height="18" rx="4" fill="#f9a825" stroke="#9a6500" stroke-width="1.4"/>
      <text x="23" y="15" text-anchor="middle" font-size="11" font-weight="bold" fill="#4a3100">A</text>
    </symbol>
    <symbol id="motifB" viewBox="0 0 46 22">
      <path d="M23 1 L45 11 L23 21 L1 11 Z" fill="#26a69a" stroke="#00695c" stroke-width="1.4"/>
      <text x="23" y="15" text-anchor="middle" font-size="11" font-weight="bold" fill="#ffffff">B</text>
    </symbol>
    <symbol id="motifC" viewBox="0 0 46 22">
      <rect x="1" y="2" width="44" height="18" rx="9" fill="#7e57c2" stroke="#4527a0" stroke-width="1.4"/>
      <text x="23" y="15" text-anchor="middle" font-size="11" font-weight="bold" fill="#ffffff">C</text>
    </symbol>
    <symbol id="motifD" viewBox="0 0 46 22">
      <polygon points="7,2 39,2 45,11 39,20 7,20 1,11" fill="#90a4ae" stroke="#455a64" stroke-width="1.4"/>
      <text x="23" y="15" text-anchor="middle" font-size="11" font-weight="bold" fill="#ffffff">D</text>
    </symbol>

    <!-- Reusable promoter region tile (light shading + dashed bottom guide) -->
    <symbol id="promoterRegion" overflow="visible">
      <rect x="0" y="-14" width="244" height="28" fill="#fff7e6" stroke="#f0c674" stroke-width="0.8" stroke-dasharray="4,3" opacity="0.85"/>
    </symbol>
    <symbol id="promoterRegionDim" overflow="visible">
      <rect x="0" y="-13" width="216" height="26" fill="#f1f5f9" stroke="#cbd5e1" stroke-width="0.8" stroke-dasharray="4,3" opacity="0.9"/>
    </symbol>
  </defs>

  <rect x="0" y="0" width="1100" height="720" rx="14" fill="#ffffff"/>

  <text x="550" y="34" text-anchor="middle" font-size="22" font-weight="bold" fill="#172033">PMET：启动子中的 motif pair 富集</text>
  <text x="550" y="56" text-anchor="middle" font-size="12" fill="#54616f">在目标基因集里，哪些 motif 对在 promoter 中共同出现的频率显著高于全基因组背景？</text>

  <!-- Legend: A / B / C / D -->
  <g transform="translate(298, 72)">
    <use href="#motifA" x="0" y="0" width="34" height="17"/>
    <text x="42" y="13" font-size="11" fill="#475569">motif A</text>
    <use href="#motifB" x="120" y="0" width="34" height="17"/>
    <text x="162" y="13" font-size="11" fill="#475569">motif B</text>
    <use href="#motifC" x="240" y="0" width="34" height="17"/>
    <text x="282" y="13" font-size="11" fill="#475569">motif C</text>
    <use href="#motifD" x="360" y="0" width="34" height="17"/>
    <text x="402" y="13" font-size="11" fill="#475569">motif D</text>
    <rect x="468" y="2" width="22" height="13" fill="#fff7e6" stroke="#f0c674" stroke-width="0.8" stroke-dasharray="3,2"/>
    <text x="496" y="13" font-size="11" fill="#475569">promoter 区域</text>
  </g>

  <!-- ============== Target gene cluster panel ============== -->
  <rect x="35" y="100" width="510" height="395" rx="10" fill="url(#clusterGrad)" stroke="#80cbc4" stroke-width="1.4"/>
  <text x="60" y="128" font-size="17" font-weight="bold" fill="#00695c">目标基因集</text>
  <text x="60" y="147" font-size="11.5" fill="#2f665f">例：热激高表达基因 / 某细胞类型上调基因</text>

  <!-- Top-right callout: A+B pair illustration (two rows) -->
  <g transform="translate(408, 105)">
    <rect x="0" y="0" width="120" height="56" rx="6" fill="#ffffff" stroke="#26a69a" stroke-width="1"/>
    <use href="#motifA" x="22" y="10" width="28" height="18"/>
    <path d="M38 11 C50 1 70 1 82 11" fill="none" stroke="#00796b" stroke-width="1.6"/>
    <use href="#motifB" x="70" y="10" width="28" height="18"/>
    <text x="60" y="46" text-anchor="middle" font-size="11.5" font-weight="bold" fill="#00796b">A+B pair</text>
  </g>

  <!-- promoter 区域 bracket above Gene 1 (above the arc) -->
  <g transform="translate(132, 168)">
    <line x1="0" y1="0" x2="0" y2="-5" stroke="#9a6500" stroke-width="1"/>
    <line x1="0" y1="-5" x2="244" y2="-5" stroke="#9a6500" stroke-width="1"/>
    <line x1="244" y1="-5" x2="244" y2="0" stroke="#9a6500" stroke-width="1"/>
    <text x="122" y="-9" text-anchor="middle" font-size="10.5" fill="#9a6500">promoter 区域（TSS 上游 ~ 2 kb）</text>
  </g>

  <!-- Gene 1 -->
  <g transform="translate(60, 200)">
    <text x="0" y="5" font-size="11" font-weight="bold" fill="#334155">Gene 1</text>
    <use href="#promoterRegion" x="72" y="0"/>
    <line x1="316" y1="0" x2="406" y2="0" stroke="#334155" stroke-width="2.5" stroke-linecap="round"/>
    <rect x="316" y="-11" width="90" height="22" rx="3" fill="#a5d6a7" stroke="#2e7d32" stroke-width="1"/>
    <text x="361" y="5" text-anchor="middle" font-size="10" font-weight="bold" fill="#1b5e20">gene body</text>
    <!-- TSS bent arrow -->
    <path d="M316 5 L316 -20 L342 -20" fill="none" stroke="#d32f2f" stroke-width="1.5" marker-end="url(#arrowTSS)"/>
    <text x="352" y="-16" font-size="10" font-weight="bold" fill="#d32f2f">TSS</text>
    <use href="#motifA" x="120" y="-10" width="38" height="19"/>
    <use href="#motifB" x="218" y="-10" width="38" height="19"/>
    <path d="M139 -16 C162 -32 214 -32 237 -16" fill="none" stroke="#00796b" stroke-width="2"/>
  </g>

  <!-- Gene 2 -->
  <g transform="translate(60, 252)">
    <text x="0" y="5" font-size="11" font-weight="bold" fill="#334155">Gene 2</text>
    <use href="#promoterRegion" x="72" y="0"/>
    <line x1="316" y1="0" x2="406" y2="0" stroke="#334155" stroke-width="2.5" stroke-linecap="round"/>
    <rect x="316" y="-11" width="90" height="22" rx="3" fill="#a5d6a7" stroke="#2e7d32" stroke-width="1"/>
    <path d="M316 5 L316 -20 L342 -20" fill="none" stroke="#d32f2f" stroke-width="1.5" marker-end="url(#arrowTSS)"/>
    <use href="#motifA" x="94" y="-10" width="38" height="19"/>
    <use href="#motifB" x="180" y="-10" width="38" height="19"/>
    <use href="#motifC" x="258" y="-10" width="38" height="19"/>
    <path d="M113 -16 C134 -30 178 -30 199 -16" fill="none" stroke="#00796b" stroke-width="2"/>
  </g>

  <!-- Gene 3 -->
  <g transform="translate(60, 304)">
    <text x="0" y="5" font-size="11" font-weight="bold" fill="#334155">Gene 3</text>
    <use href="#promoterRegion" x="72" y="0"/>
    <line x1="316" y1="0" x2="406" y2="0" stroke="#334155" stroke-width="2.5" stroke-linecap="round"/>
    <rect x="316" y="-11" width="90" height="22" rx="3" fill="#a5d6a7" stroke="#2e7d32" stroke-width="1"/>
    <path d="M316 5 L316 -20 L342 -20" fill="none" stroke="#d32f2f" stroke-width="1.5" marker-end="url(#arrowTSS)"/>
    <use href="#motifA" x="146" y="-10" width="38" height="19"/>
    <use href="#motifB" x="248" y="-10" width="38" height="19"/>
    <path d="M165 -16 C188 -34 246 -34 267 -16" fill="none" stroke="#00796b" stroke-width="2"/>
  </g>

  <!-- Gene 4 -->
  <g transform="translate(60, 356)">
    <text x="0" y="5" font-size="11" font-weight="bold" fill="#334155">Gene 4</text>
    <use href="#promoterRegion" x="72" y="0"/>
    <line x1="316" y1="0" x2="406" y2="0" stroke="#334155" stroke-width="2.5" stroke-linecap="round"/>
    <rect x="316" y="-11" width="90" height="22" rx="3" fill="#a5d6a7" stroke="#2e7d32" stroke-width="1"/>
    <path d="M316 5 L316 -20 L342 -20" fill="none" stroke="#d32f2f" stroke-width="1.5" marker-end="url(#arrowTSS)"/>
    <use href="#motifA" x="106" y="-10" width="38" height="19"/>
    <use href="#motifB" x="266" y="-10" width="38" height="19"/>
    <path d="M125 -16 C160 -42 252 -42 285 -16" fill="none" stroke="#00796b" stroke-width="2"/>
  </g>

  <!-- Gene 5 (no A+B pair: shows that not every target gene has the pair) -->
  <g transform="translate(60, 408)">
    <text x="0" y="5" font-size="11" font-weight="bold" fill="#334155">Gene 5</text>
    <use href="#promoterRegion" x="72" y="0"/>
    <line x1="316" y1="0" x2="406" y2="0" stroke="#334155" stroke-width="2.5" stroke-linecap="round"/>
    <rect x="316" y="-11" width="90" height="22" rx="3" fill="#a5d6a7" stroke="#2e7d32" stroke-width="1"/>
    <path d="M316 5 L316 -20 L342 -20" fill="none" stroke="#d32f2f" stroke-width="1.5" marker-end="url(#arrowTSS)"/>
    <use href="#motifC" x="118" y="-10" width="38" height="19"/>
    <use href="#motifD" x="220" y="-10" width="38" height="19"/>
  </g>

  <!-- motif pair annotation: label to the right of Gene 1's gene body, leader curves back to arc apex -->
  <g>
    <text x="476" y="194" font-size="10.5" font-weight="bold" fill="#00796b">motif</text>
    <text x="476" y="208" font-size="10.5" font-weight="bold" fill="#00796b">pair</text>
    <path d="M472 195 C440 192 360 178 256 170" fill="none" stroke="#00796b" stroke-width="1" stroke-dasharray="3,2"/>
    <circle cx="252" cy="168" r="1.8" fill="#00796b"/>
  </g>

  <!-- cluster summary stat -->
  <rect x="70" y="450" width="440" height="32" rx="6" fill="#ffffff" stroke="#80cbc4" stroke-width="1"/>
  <text x="290" y="471" text-anchor="middle" font-size="12" fill="#00695c">5 个目标基因中 <tspan font-weight="bold" fill="#004d40">4 个</tspan> 含 A+B pair（80%）</text>

  <!-- ============== Universe panel ============== -->
  <rect x="595" y="100" width="470" height="395" rx="10" fill="url(#universeGrad)" stroke="#cbd5e1" stroke-width="1.4"/>
  <text x="620" y="128" font-size="17" font-weight="bold" fill="#334155">全基因组 promoter 背景</text>
  <text x="620" y="147" font-size="11.5" fill="#64748b">所有有可用 promoter 的基因构成 null universe</text>

  <g transform="translate(908, 105)">
    <rect x="0" y="0" width="140" height="56" rx="6" fill="#ffffff" stroke="#cbd5e1" stroke-width="1"/>
    <use href="#motifA" x="32" y="10" width="28" height="18"/>
    <path d="M48 11 C60 1 80 1 92 11" fill="none" stroke="#94a3b8" stroke-width="1.6" stroke-dasharray="3,2"/>
    <use href="#motifB" x="80" y="10" width="28" height="18"/>
    <text x="70" y="46" text-anchor="middle" font-size="11.5" font-weight="bold" fill="#475569">A+B 偶尔出现</text>
  </g>

  <!-- promoter region bracket -->
  <g transform="translate(688, 168)">
    <line x1="0" y1="0" x2="0" y2="-5" stroke="#94a3b8" stroke-width="1"/>
    <line x1="0" y1="-5" x2="216" y2="-5" stroke="#94a3b8" stroke-width="1"/>
    <line x1="216" y1="-5" x2="216" y2="0" stroke="#94a3b8" stroke-width="1"/>
    <text x="108" y="-9" text-anchor="middle" font-size="10.5" fill="#64748b">promoter 区域</text>
  </g>

  <!-- Universe rows: spacing 47 -->
  <!-- Gene a -->
  <g transform="translate(620, 200)">
    <text x="0" y="5" font-size="11" font-weight="bold" fill="#475569">Gene a</text>
    <use href="#promoterRegionDim" x="68" y="0"/>
    <line x1="284" y1="0" x2="358" y2="0" stroke="#475569" stroke-width="2.2" stroke-linecap="round"/>
    <rect x="284" y="-10" width="74" height="20" rx="3" fill="#cfd8dc" stroke="#78909c" stroke-width="0.8"/>
    <path d="M284 5 L284 -18 L308 -18" fill="none" stroke="#d32f2f" stroke-width="1.5" marker-end="url(#arrowTSS)"/>
    <use href="#motifA" x="100" y="-9" width="36" height="18"/>
    <use href="#motifC" x="216" y="-9" width="36" height="18"/>
  </g>
  <!-- Gene b -->
  <g transform="translate(620, 247)">
    <text x="0" y="5" font-size="11" font-weight="bold" fill="#475569">Gene b</text>
    <use href="#promoterRegionDim" x="68" y="0"/>
    <line x1="284" y1="0" x2="358" y2="0" stroke="#475569" stroke-width="2.2" stroke-linecap="round"/>
    <rect x="284" y="-10" width="74" height="20" rx="3" fill="#cfd8dc" stroke="#78909c" stroke-width="0.8"/>
    <path d="M284 5 L284 -18 L308 -18" fill="none" stroke="#d32f2f" stroke-width="1.5" marker-end="url(#arrowTSS)"/>
    <use href="#motifB" x="156" y="-9" width="36" height="18"/>
    <use href="#motifD" x="228" y="-9" width="36" height="18"/>
  </g>
  <!-- Gene c (the rare A+B in background) -->
  <g transform="translate(620, 294)">
    <text x="0" y="5" font-size="11" font-weight="bold" fill="#475569">Gene c</text>
    <use href="#promoterRegionDim" x="68" y="0"/>
    <line x1="284" y1="0" x2="358" y2="0" stroke="#475569" stroke-width="2.2" stroke-linecap="round"/>
    <rect x="284" y="-10" width="74" height="20" rx="3" fill="#cfd8dc" stroke="#78909c" stroke-width="0.8"/>
    <path d="M284 5 L284 -18 L308 -18" fill="none" stroke="#d32f2f" stroke-width="1.5" marker-end="url(#arrowTSS)"/>
    <use href="#motifA" x="92" y="-9" width="36" height="18"/>
    <use href="#motifB" x="190" y="-9" width="36" height="18"/>
    <path d="M110 -14 C134 -28 184 -28 208 -14" fill="none" stroke="#78909c" stroke-width="1.6" stroke-dasharray="4,3"/>
  </g>
  <!-- Gene d -->
  <g transform="translate(620, 341)">
    <text x="0" y="5" font-size="11" font-weight="bold" fill="#475569">Gene d</text>
    <use href="#promoterRegionDim" x="68" y="0"/>
    <line x1="284" y1="0" x2="358" y2="0" stroke="#475569" stroke-width="2.2" stroke-linecap="round"/>
    <rect x="284" y="-10" width="74" height="20" rx="3" fill="#cfd8dc" stroke="#78909c" stroke-width="0.8"/>
    <path d="M284 5 L284 -18 L308 -18" fill="none" stroke="#d32f2f" stroke-width="1.5" marker-end="url(#arrowTSS)"/>
    <use href="#motifC" x="124" y="-9" width="36" height="18"/>
    <use href="#motifD" x="220" y="-9" width="36" height="18"/>
  </g>
  <!-- Gene e -->
  <g transform="translate(620, 388)">
    <text x="0" y="5" font-size="11" font-weight="bold" fill="#475569">Gene e</text>
    <use href="#promoterRegionDim" x="68" y="0"/>
    <line x1="284" y1="0" x2="358" y2="0" stroke="#475569" stroke-width="2.2" stroke-linecap="round"/>
    <rect x="284" y="-10" width="74" height="20" rx="3" fill="#cfd8dc" stroke="#78909c" stroke-width="0.8"/>
    <path d="M284 5 L284 -18 L308 -18" fill="none" stroke="#d32f2f" stroke-width="1.5" marker-end="url(#arrowTSS)"/>
    <use href="#motifA" x="78" y="-9" width="36" height="18"/>
    <use href="#motifD" x="176" y="-9" width="36" height="18"/>
  </g>
  <!-- Gene f -->
  <g transform="translate(620, 435)">
    <text x="0" y="5" font-size="11" font-weight="bold" fill="#475569">Gene f</text>
    <use href="#promoterRegionDim" x="68" y="0"/>
    <line x1="284" y1="0" x2="358" y2="0" stroke="#475569" stroke-width="2.2" stroke-linecap="round"/>
    <rect x="284" y="-10" width="74" height="20" rx="3" fill="#cfd8dc" stroke="#78909c" stroke-width="0.8"/>
    <path d="M284 5 L284 -18 L308 -18" fill="none" stroke="#d32f2f" stroke-width="1.5" marker-end="url(#arrowTSS)"/>
    <use href="#motifB" x="116" y="-9" width="36" height="18"/>
    <use href="#motifC" x="232" y="-9" width="36" height="18"/>
  </g>

  <!-- universe summary stat -->
  <rect x="610" y="450" width="440" height="32" rx="6" fill="#ffffff" stroke="#cbd5e1" stroke-width="1"/>
  <text x="830" y="471" text-anchor="middle" font-size="12" fill="#475569">背景 6 个基因中 <tspan font-weight="bold" fill="#1e293b">1 个</tspan> 含 A+B pair（17%）</text>

  <!-- arrows feeding statistical panel -->
  <path d="M290 484 L380 522" fill="none" stroke="#00796b" stroke-width="2" marker-end="url(#arrowTeal)"/>
  <path d="M830 484 L720 522" fill="none" stroke="#607d8b" stroke-width="2" marker-end="url(#arrowGrey)"/>

  <!-- ============== Statistical test panel ============== -->
  <rect x="200" y="510" width="700" height="178" rx="10" fill="#ffffff" stroke="#b2dfdb" stroke-width="1.5" filter="url(#softShadow)"/>
  <text x="550" y="535" text-anchor="middle" font-size="15" font-weight="bold" fill="#004d40">PMET pairing：对每个 motif pair 做富集检验</text>

  <!-- Box 1: 2x2 contingency table for A+B -->
  <g transform="translate(218, 548)">
    <rect x="0" y="0" width="252" height="128" rx="7" fill="#e0f2f1" stroke="#80cbc4" stroke-width="1"/>
    <text x="126" y="20" text-anchor="middle" font-size="11.5" font-weight="bold" fill="#00695c">A+B pair 的 2×2 列联表</text>
    <!-- table grid -->
    <g transform="translate(20, 32)">
      <!-- column headers -->
      <text x="115" y="14" text-anchor="middle" font-size="10" fill="#334155">含 A+B</text>
      <text x="180" y="14" text-anchor="middle" font-size="10" fill="#334155">不含</text>
      <!-- row 1: target -->
      <rect x="0" y="20" width="60" height="26" fill="#ffffff" stroke="#80cbc4"/>
      <text x="30" y="37" text-anchor="middle" font-size="10.5" fill="#00695c">目标集</text>
      <rect x="60" y="20" width="80" height="26" fill="#b2dfdb" stroke="#80cbc4"/>
      <text x="100" y="38" text-anchor="middle" font-size="13" font-weight="bold" fill="#004d40">4</text>
      <rect x="140" y="20" width="80" height="26" fill="#ffffff" stroke="#80cbc4"/>
      <text x="180" y="38" text-anchor="middle" font-size="12" fill="#334155">1</text>
      <!-- row 2: background -->
      <rect x="0" y="46" width="60" height="26" fill="#ffffff" stroke="#cbd5e1"/>
      <text x="30" y="63" text-anchor="middle" font-size="10.5" fill="#475569">背景</text>
      <rect x="60" y="46" width="80" height="26" fill="#ffffff" stroke="#cbd5e1"/>
      <text x="100" y="63" text-anchor="middle" font-size="12" fill="#334155">1</text>
      <rect x="140" y="46" width="80" height="26" fill="#f1f5f9" stroke="#cbd5e1"/>
      <text x="180" y="63" text-anchor="middle" font-size="12" fill="#334155">5</text>
    </g>
    <text x="126" y="120" text-anchor="middle" font-size="10.5" fill="#00695c">观测富集是否显著大于随机期望？</text>
  </g>

  <!-- Box 2: hypergeometric + correction -->
  <g transform="translate(490, 548)">
    <rect x="0" y="0" width="158" height="128" rx="7" fill="#f8fafc" stroke="#cbd5e1" stroke-width="1"/>
    <text x="79" y="22" text-anchor="middle" font-size="12" font-weight="bold" fill="#334155">超几何检验</text>
    <text x="79" y="42" text-anchor="middle" font-size="10.5" fill="#64748b">P(X ≥ k | K, m, N)</text>
    <line x1="20" y1="58" x2="138" y2="58" stroke="#cbd5e1" stroke-width="1" stroke-dasharray="3,3"/>
    <text x="79" y="78" text-anchor="middle" font-size="11.5" font-weight="bold" fill="#334155">多重检验校正</text>
    <text x="79" y="96" text-anchor="middle" font-size="10.5" fill="#64748b">BH / Bonferroni</text>
    <text x="79" y="114" text-anchor="middle" font-size="10.5" fill="#64748b">→ adj.p</text>
  </g>

  <!-- Box 3: ranked result table -->
  <g transform="translate(668, 548)">
    <rect x="0" y="0" width="214" height="128" rx="7" fill="#fffde7" stroke="#fbc02d" stroke-width="1"/>
    <text x="107" y="22" text-anchor="middle" font-size="12" font-weight="bold" fill="#795548">按 adj.p 排序的 motif pair</text>
    <!-- header -->
    <text x="14" y="42" font-size="10" fill="#9c8e6f">pair</text>
    <text x="86" y="42" font-size="10" fill="#9c8e6f">adj.p</text>
    <text x="140" y="42" font-size="10" fill="#9c8e6f">−log10</text>
    <line x1="12" y1="46" x2="202" y2="46" stroke="#e0d68a" stroke-width="0.8"/>
    <!-- row 1: A+B significant -->
    <text x="14" y="64" font-size="11" font-weight="bold" fill="#1b5e20">A + B</text>
    <text x="86" y="64" font-size="11" font-weight="bold" fill="#1b5e20">0.003</text>
    <rect x="140" y="55" width="60" height="11" fill="#66bb6a" stroke="#2e7d32" stroke-width="0.6"/>
    <!-- row 2: C+D -->
    <text x="14" y="86" font-size="11" fill="#334155">C + D</text>
    <text x="86" y="86" font-size="11" fill="#334155">0.21</text>
    <rect x="140" y="77" width="22" height="11" fill="#fdd835" stroke="#c0a000" stroke-width="0.6"/>
    <!-- row 3: A+C -->
    <text x="14" y="108" font-size="11" fill="#334155">A + C</text>
    <text x="86" y="108" font-size="11" fill="#334155">0.67</text>
    <rect x="140" y="99" width="6" height="11" fill="#ef9a9a" stroke="#b71c1c" stroke-width="0.6"/>
    <!-- legend strip -->
    <text x="107" y="122" text-anchor="middle" font-size="9" fill="#9c8e6f">绿 = 显著富集</text>
  </g>

  <!-- arrows between boxes -->
  <path d="M470 612 L488 612" fill="none" stroke="#475569" stroke-width="1.5" marker-end="url(#arrowSlate)"/>
  <path d="M648 612 L666 612" fill="none" stroke="#475569" stroke-width="1.5" marker-end="url(#arrowSlate)"/>

  <!-- footnote -->
  <text x="550" y="710" text-anchor="middle" font-size="10.5" fill="#64748b">注：A+B 表示两个 motif 在同一 promoter 内共现，PMET 不要求紧邻；重叠过多的 FIMO hit 会被过滤。</text>
</svg>
