<svg xmlns="http://www.w3.org/2000/svg" viewBox="0 0 1100 720" role="img" aria-labelledby="pairen-title pairen-desc" lang="en" font-family="-apple-system, BlinkMacSystemFont, 'Segoe UI', Arial, sans-serif">
  <title id="pairen-title">PMET: Motif pair enrichment in promoters (schematic)</title>
  <desc id="pairen-desc">Left panel "Target gene set": 4 of 5 target promoters contain the A+B motif pair (80%). Right panel "Genome-wide promoter background": only 1 of 6 background genes contains A+B (17%). Bottom statistical panel: the 2×2 contingency table for A+B (Target 4/1, Background 1/5) → hypergeometric test P(X ≥ k | K, m, N) + BH/Bonferroni multiple-testing correction → motif pairs ranked by adj.p, with A+B significantly enriched. Note: A+B means both motifs co-occur within the same promoter; proximity is not required. FIMO hits with excessive overlap are filtered.</desc>
  <defs>
    <marker id="arrPrimary" markerWidth="9" markerHeight="7" refX="8" refY="3.5" orient="auto">
      <polygon points="0 0, 9 3.5, 0 7" fill="#0f766e"/>
    </marker>
    <marker id="arrMuted" markerWidth="9" markerHeight="7" refX="8" refY="3.5" orient="auto">
      <polygon points="0 0, 9 3.5, 0 7" fill="#94a3b8"/>
    </marker>
    <marker id="arrTSS" markerWidth="8" markerHeight="6" refX="7" refY="3" orient="auto">
      <polygon points="0 0, 8 3, 0 6" fill="#b7791f"/>
    </marker>
    <marker id="arrSlate" markerWidth="7" markerHeight="6" refX="6" refY="3" orient="auto">
      <polygon points="0 0, 7 3, 0 6" fill="#475569"/>
    </marker>
    <filter id="softShadow" x="-10%" y="-10%" width="120%" height="120%">
      <feDropShadow dx="0" dy="6" stdDeviation="10" flood-color="#0f172a" flood-opacity="0.08"/>
    </filter>

    <symbol id="motifA" viewBox="0 0 46 22">
      <rect x="1" y="2" width="44" height="18" rx="4" fill="#fde9c6" stroke="#b7791f" stroke-width="1.2"/>
      <text x="23" y="15" text-anchor="middle" font-size="11" font-weight="700" fill="#7a4d10">A</text>
    </symbol>
    <symbol id="motifB" viewBox="0 0 46 22">
      <path d="M23 1 L45 11 L23 21 L1 11 Z" fill="#bdded8" stroke="#0f766e" stroke-width="1.2"/>
      <text x="23" y="15" text-anchor="middle" font-size="11" font-weight="700" fill="#134e4a">B</text>
    </symbol>
    <symbol id="motifC" viewBox="0 0 46 22">
      <rect x="1" y="2" width="44" height="18" rx="9" fill="#e0d4f0" stroke="#8a4cbe" stroke-width="1.2"/>
      <text x="23" y="15" text-anchor="middle" font-size="11" font-weight="700" fill="#5e2d8c">C</text>
    </symbol>
    <symbol id="motifD" viewBox="0 0 46 22">
      <polygon points="7,2 39,2 45,11 39,20 7,20 1,11" fill="#e2e8f0" stroke="#64748b" stroke-width="1.2"/>
      <text x="23" y="15" text-anchor="middle" font-size="11" font-weight="700" fill="#334155">D</text>
    </symbol>

    <symbol id="promoterRegion" overflow="visible">
      <rect x="0" y="-14" width="244" height="28" fill="#fdf6e7" stroke="#b7791f" stroke-width="0.8" stroke-dasharray="4,3" opacity="0.7"/>
    </symbol>
    <symbol id="promoterRegionDim" overflow="visible">
      <rect x="0" y="-13" width="216" height="26" fill="#f7faf9" stroke="#dbe5e8" stroke-width="0.8" stroke-dasharray="4,3"/>
    </symbol>
  </defs>

  <rect x="0" y="0" width="1100" height="720" rx="14" fill="#ffffff"/>

  <text x="550" y="34" text-anchor="middle" font-size="22" font-weight="700" fill="#0f172a">PMET: Motif pair enrichment in promoters</text>
  <text x="550" y="56" text-anchor="middle" font-size="12" fill="#64748b">Which motif pairs are enriched in target gene promoters versus the genome-wide background?</text>

  <!-- Legend -->
  <g transform="translate(286, 72)" font-size="11" fill="#475569">
    <use href="#motifA" x="0" y="0" width="34" height="17"/><text x="42" y="13">motif A</text>
    <use href="#motifB" x="120" y="0" width="34" height="17"/><text x="162" y="13">motif B</text>
    <use href="#motifC" x="240" y="0" width="34" height="17"/><text x="282" y="13">motif C</text>
    <use href="#motifD" x="360" y="0" width="34" height="17"/><text x="402" y="13">motif D</text>
    <rect x="468" y="2" width="22" height="13" fill="#fdf6e7" stroke="#b7791f" stroke-width="0.8" stroke-dasharray="3,2" opacity="0.7"/>
    <text x="496" y="13">promoter region</text>
  </g>

  <!-- ============== Target gene cluster panel ============== -->
  <rect x="35" y="100" width="510" height="395" rx="10" fill="#eef8f6" stroke="#dbe5e8" stroke-width="1"/>
  <text x="60" y="128" font-size="17" font-weight="700" fill="#0f172a">Target gene set</text>
  <text x="60" y="147" font-size="11.5" fill="#475569">e.g., heat-shock genes / cell-type up-regulated genes</text>

  <!-- A+B pair illustration callout -->
  <g transform="translate(408, 105)">
    <rect x="0" y="0" width="120" height="56" rx="6" fill="#ffffff" stroke="#dbe5e8" stroke-width="1"/>
    <use href="#motifA" x="22" y="10" width="28" height="18"/>
    <path d="M38 11 C50 1 70 1 82 11" fill="none" stroke="#0f766e" stroke-width="1.6"/>
    <use href="#motifB" x="70" y="10" width="28" height="18"/>
    <text x="60" y="46" text-anchor="middle" font-size="11.5" font-weight="700" fill="#0f766e">A+B pair</text>
  </g>

  <!-- Promoter region bracket -->
  <g transform="translate(132, 168)" stroke="#b7791f" stroke-width="1" fill="none">
    <line x1="0" y1="0" x2="0" y2="-5"/>
    <line x1="0" y1="-5" x2="244" y2="-5"/>
    <line x1="244" y1="-5" x2="244" y2="0"/>
    <text x="122" y="-9" text-anchor="middle" font-size="10.5" fill="#7a4d10" stroke="none">promoter region (~2 kb upstream of TSS)</text>
  </g>

  <!-- Gene rows: shared chrome via group attrs -->
  <g font-size="11" font-weight="700" fill="#334155">
    <g transform="translate(60, 200)">
      <text x="0" y="5">Gene 1</text>
      <use href="#promoterRegion" x="72" y="0"/>
      <line x1="316" y1="0" x2="406" y2="0" stroke="#334155" stroke-width="2.5" stroke-linecap="round"/>
      <rect x="316" y="-11" width="90" height="22" rx="3" fill="#bdded8" stroke="#0f766e" stroke-width="1"/>
      <text x="361" y="5" text-anchor="middle" font-size="10" fill="#134e4a">gene body</text>
      <path d="M316 5 L316 -20 L342 -20" fill="none" stroke="#b7791f" stroke-width="1.5" marker-end="url(#arrTSS)"/>
      <text x="352" y="-16" font-size="10" fill="#7a4d10">TSS</text>
      <use href="#motifA" x="120" y="-10" width="38" height="19"/>
      <use href="#motifB" x="218" y="-10" width="38" height="19"/>
      <path d="M139 -16 C162 -32 214 -32 237 -16" fill="none" stroke="#0f766e" stroke-width="2"/>
    </g>
    <g transform="translate(60, 252)">
      <text x="0" y="5">Gene 2</text>
      <use href="#promoterRegion" x="72" y="0"/>
      <line x1="316" y1="0" x2="406" y2="0" stroke="#334155" stroke-width="2.5" stroke-linecap="round"/>
      <rect x="316" y="-11" width="90" height="22" rx="3" fill="#bdded8" stroke="#0f766e" stroke-width="1"/>
      <path d="M316 5 L316 -20 L342 -20" fill="none" stroke="#b7791f" stroke-width="1.5" marker-end="url(#arrTSS)"/>
      <use href="#motifA" x="94" y="-10" width="38" height="19"/>
      <use href="#motifB" x="180" y="-10" width="38" height="19"/>
      <use href="#motifC" x="258" y="-10" width="38" height="19"/>
      <path d="M113 -16 C134 -30 178 -30 199 -16" fill="none" stroke="#0f766e" stroke-width="2"/>
    </g>
    <g transform="translate(60, 304)">
      <text x="0" y="5">Gene 3</text>
      <use href="#promoterRegion" x="72" y="0"/>
      <line x1="316" y1="0" x2="406" y2="0" stroke="#334155" stroke-width="2.5" stroke-linecap="round"/>
      <rect x="316" y="-11" width="90" height="22" rx="3" fill="#bdded8" stroke="#0f766e" stroke-width="1"/>
      <path d="M316 5 L316 -20 L342 -20" fill="none" stroke="#b7791f" stroke-width="1.5" marker-end="url(#arrTSS)"/>
      <use href="#motifA" x="146" y="-10" width="38" height="19"/>
      <use href="#motifB" x="248" y="-10" width="38" height="19"/>
      <path d="M165 -16 C188 -34 246 -34 267 -16" fill="none" stroke="#0f766e" stroke-width="2"/>
    </g>
    <g transform="translate(60, 356)">
      <text x="0" y="5">Gene 4</text>
      <use href="#promoterRegion" x="72" y="0"/>
      <line x1="316" y1="0" x2="406" y2="0" stroke="#334155" stroke-width="2.5" stroke-linecap="round"/>
      <rect x="316" y="-11" width="90" height="22" rx="3" fill="#bdded8" stroke="#0f766e" stroke-width="1"/>
      <path d="M316 5 L316 -20 L342 -20" fill="none" stroke="#b7791f" stroke-width="1.5" marker-end="url(#arrTSS)"/>
      <use href="#motifA" x="106" y="-10" width="38" height="19"/>
      <use href="#motifB" x="266" y="-10" width="38" height="19"/>
      <path d="M125 -16 C160 -42 252 -42 285 -16" fill="none" stroke="#0f766e" stroke-width="2"/>
    </g>
    <g transform="translate(60, 408)">
      <text x="0" y="5">Gene 5</text>
      <use href="#promoterRegion" x="72" y="0"/>
      <line x1="316" y1="0" x2="406" y2="0" stroke="#334155" stroke-width="2.5" stroke-linecap="round"/>
      <rect x="316" y="-11" width="90" height="22" rx="3" fill="#bdded8" stroke="#0f766e" stroke-width="1"/>
      <path d="M316 5 L316 -20 L342 -20" fill="none" stroke="#b7791f" stroke-width="1.5" marker-end="url(#arrTSS)"/>
      <use href="#motifC" x="118" y="-10" width="38" height="19"/>
      <use href="#motifD" x="220" y="-10" width="38" height="19"/>
    </g>
  </g>

  <!-- motif pair annotation -->
  <g>
    <text x="476" y="194" font-size="10.5" font-weight="700" fill="#0f766e">motif</text>
    <text x="476" y="208" font-size="10.5" font-weight="700" fill="#0f766e">pair</text>
    <path d="M472 195 C440 192 360 178 256 170" fill="none" stroke="#0f766e" stroke-width="1" stroke-dasharray="3,2"/>
    <circle cx="252" cy="168" r="1.8" fill="#0f766e"/>
  </g>

  <!-- cluster summary stat -->
  <rect x="70" y="450" width="440" height="32" rx="6" fill="#ffffff" stroke="#dbe5e8" stroke-width="1"/>
  <text x="290" y="471" text-anchor="middle" font-size="12" fill="#475569"><tspan font-weight="700" fill="#0f766e">4 of 5</tspan> target genes contain the A+B pair (80%)</text>

  <!-- ============== Universe panel ============== -->
  <rect x="595" y="100" width="470" height="395" rx="10" fill="#f7faf9" stroke="#dbe5e8" stroke-width="1"/>
  <text x="620" y="128" font-size="17" font-weight="700" fill="#0f172a">Genome-wide promoter background</text>
  <text x="620" y="147" font-size="11.5" fill="#64748b">All genes with usable promoters form the null universe</text>

  <g transform="translate(908, 105)">
    <rect x="0" y="0" width="140" height="56" rx="6" fill="#ffffff" stroke="#dbe5e8" stroke-width="1"/>
    <use href="#motifA" x="32" y="10" width="28" height="18"/>
    <path d="M48 11 C60 1 80 1 92 11" fill="none" stroke="#94a3b8" stroke-width="1.6" stroke-dasharray="3,2"/>
    <use href="#motifB" x="80" y="10" width="28" height="18"/>
    <text x="70" y="46" text-anchor="middle" font-size="11.5" font-weight="700" fill="#475569">A+B rare here</text>
  </g>

  <g transform="translate(688, 168)" stroke="#94a3b8" stroke-width="1" fill="none">
    <line x1="0" y1="0" x2="0" y2="-5"/>
    <line x1="0" y1="-5" x2="216" y2="-5"/>
    <line x1="216" y1="-5" x2="216" y2="0"/>
    <text x="108" y="-9" text-anchor="middle" font-size="10.5" fill="#64748b" stroke="none">promoter region</text>
  </g>

  <!-- Universe rows -->
  <g font-size="11" font-weight="700" fill="#475569">
    <g transform="translate(620, 200)">
      <text x="0" y="5">Gene a</text>
      <use href="#promoterRegionDim" x="68" y="0"/>
      <line x1="284" y1="0" x2="358" y2="0" stroke="#94a3b8" stroke-width="2.2" stroke-linecap="round"/>
      <rect x="284" y="-10" width="74" height="20" rx="3" fill="#e2e8f0" stroke="#94a3b8" stroke-width="0.8"/>
      <path d="M284 5 L284 -18 L308 -18" fill="none" stroke="#b7791f" stroke-width="1.5" marker-end="url(#arrTSS)"/>
      <use href="#motifA" x="100" y="-9" width="36" height="18"/>
      <use href="#motifC" x="216" y="-9" width="36" height="18"/>
    </g>
    <g transform="translate(620, 247)">
      <text x="0" y="5">Gene b</text>
      <use href="#promoterRegionDim" x="68" y="0"/>
      <line x1="284" y1="0" x2="358" y2="0" stroke="#94a3b8" stroke-width="2.2" stroke-linecap="round"/>
      <rect x="284" y="-10" width="74" height="20" rx="3" fill="#e2e8f0" stroke="#94a3b8" stroke-width="0.8"/>
      <path d="M284 5 L284 -18 L308 -18" fill="none" stroke="#b7791f" stroke-width="1.5" marker-end="url(#arrTSS)"/>
      <use href="#motifB" x="156" y="-9" width="36" height="18"/>
      <use href="#motifD" x="228" y="-9" width="36" height="18"/>
    </g>
    <g transform="translate(620, 294)">
      <text x="0" y="5">Gene c</text>
      <use href="#promoterRegionDim" x="68" y="0"/>
      <line x1="284" y1="0" x2="358" y2="0" stroke="#94a3b8" stroke-width="2.2" stroke-linecap="round"/>
      <rect x="284" y="-10" width="74" height="20" rx="3" fill="#e2e8f0" stroke="#94a3b8" stroke-width="0.8"/>
      <path d="M284 5 L284 -18 L308 -18" fill="none" stroke="#b7791f" stroke-width="1.5" marker-end="url(#arrTSS)"/>
      <use href="#motifA" x="92" y="-9" width="36" height="18"/>
      <use href="#motifB" x="190" y="-9" width="36" height="18"/>
      <path d="M110 -14 C134 -28 184 -28 208 -14" fill="none" stroke="#94a3b8" stroke-width="1.6" stroke-dasharray="4,3"/>
    </g>
    <g transform="translate(620, 341)">
      <text x="0" y="5">Gene d</text>
      <use href="#promoterRegionDim" x="68" y="0"/>
      <line x1="284" y1="0" x2="358" y2="0" stroke="#94a3b8" stroke-width="2.2" stroke-linecap="round"/>
      <rect x="284" y="-10" width="74" height="20" rx="3" fill="#e2e8f0" stroke="#94a3b8" stroke-width="0.8"/>
      <path d="M284 5 L284 -18 L308 -18" fill="none" stroke="#b7791f" stroke-width="1.5" marker-end="url(#arrTSS)"/>
      <use href="#motifC" x="124" y="-9" width="36" height="18"/>
      <use href="#motifD" x="220" y="-9" width="36" height="18"/>
    </g>
    <g transform="translate(620, 388)">
      <text x="0" y="5">Gene e</text>
      <use href="#promoterRegionDim" x="68" y="0"/>
      <line x1="284" y1="0" x2="358" y2="0" stroke="#94a3b8" stroke-width="2.2" stroke-linecap="round"/>
      <rect x="284" y="-10" width="74" height="20" rx="3" fill="#e2e8f0" stroke="#94a3b8" stroke-width="0.8"/>
      <path d="M284 5 L284 -18 L308 -18" fill="none" stroke="#b7791f" stroke-width="1.5" marker-end="url(#arrTSS)"/>
      <use href="#motifA" x="78" y="-9" width="36" height="18"/>
      <use href="#motifD" x="176" y="-9" width="36" height="18"/>
    </g>
    <g transform="translate(620, 435)">
      <text x="0" y="5">Gene f</text>
      <use href="#promoterRegionDim" x="68" y="0"/>
      <line x1="284" y1="0" x2="358" y2="0" stroke="#94a3b8" stroke-width="2.2" stroke-linecap="round"/>
      <rect x="284" y="-10" width="74" height="20" rx="3" fill="#e2e8f0" stroke="#94a3b8" stroke-width="0.8"/>
      <path d="M284 5 L284 -18 L308 -18" fill="none" stroke="#b7791f" stroke-width="1.5" marker-end="url(#arrTSS)"/>
      <use href="#motifB" x="116" y="-9" width="36" height="18"/>
      <use href="#motifC" x="232" y="-9" width="36" height="18"/>
    </g>
  </g>

  <!-- universe summary stat -->
  <rect x="610" y="450" width="440" height="32" rx="6" fill="#ffffff" stroke="#dbe5e8" stroke-width="1"/>
  <text x="830" y="471" text-anchor="middle" font-size="12" fill="#475569"><tspan font-weight="700" fill="#334155">1 of 6</tspan> background genes contains the A+B pair (17%)</text>

  <!-- arrows feeding statistical panel -->
  <path d="M290 484 L380 522" fill="none" stroke="#0f766e" stroke-width="2" marker-end="url(#arrPrimary)"/>
  <path d="M830 484 L720 522" fill="none" stroke="#94a3b8" stroke-width="2" marker-end="url(#arrMuted)"/>

  <!-- ============== Statistical test panel ============== -->
  <rect x="200" y="510" width="700" height="178" rx="10" fill="#ffffff" stroke="#dbe5e8" stroke-width="1" filter="url(#softShadow)"/>
  <text x="550" y="535" text-anchor="middle" font-size="15" font-weight="700" fill="#0f172a">PMET pairing: enrichment test per motif pair</text>

  <!-- Box 1: 2x2 contingency table -->
  <g transform="translate(218, 548)">
    <rect x="0" y="0" width="252" height="128" rx="7" fill="#eef8f6" stroke="#dbe5e8" stroke-width="1"/>
    <text x="126" y="20" text-anchor="middle" font-size="11.5" font-weight="700" fill="#0f172a">2×2 contingency table for A+B</text>
    <g transform="translate(12, 32)" font-size="10" fill="#475569">
      <text x="120" y="14" text-anchor="middle">with A+B</text>
      <text x="190" y="14" text-anchor="middle">without</text>
      <rect x="0" y="20" width="80" height="26" fill="#ffffff" stroke="#dbe5e8"/>
      <text x="40" y="37" text-anchor="middle" font-size="10.5" fill="#0f766e" font-weight="700">Target</text>
      <rect x="80" y="20" width="80" height="26" fill="#bdded8" stroke="#0f766e" stroke-width="0.8"/>
      <text x="120" y="38" text-anchor="middle" font-size="13" font-weight="700" fill="#134e4a">4</text>
      <rect x="160" y="20" width="80" height="26" fill="#ffffff" stroke="#dbe5e8"/>
      <text x="200" y="38" text-anchor="middle" font-size="12" fill="#334155">1</text>
      <rect x="0" y="46" width="80" height="26" fill="#ffffff" stroke="#dbe5e8"/>
      <text x="40" y="63" text-anchor="middle" font-size="10.5" fill="#64748b">Background</text>
      <rect x="80" y="46" width="80" height="26" fill="#ffffff" stroke="#dbe5e8"/>
      <text x="120" y="63" text-anchor="middle" font-size="12" fill="#334155">1</text>
      <rect x="160" y="46" width="80" height="26" fill="#f7faf9" stroke="#dbe5e8"/>
      <text x="200" y="63" text-anchor="middle" font-size="12" fill="#334155">5</text>
    </g>
    <text x="126" y="120" text-anchor="middle" font-size="10.5" fill="#475569">Is the observed enrichment beyond chance?</text>
  </g>

  <!-- Box 2: hypergeometric + correction -->
  <g transform="translate(490, 548)">
    <rect x="0" y="0" width="158" height="128" rx="7" fill="#ffffff" stroke="#dbe5e8" stroke-width="1"/>
    <text x="79" y="22" text-anchor="middle" font-size="12" font-weight="700" fill="#0f172a">Hypergeometric test</text>
    <text x="79" y="42" text-anchor="middle" font-size="10.5" fill="#64748b">P(X ≥ k | K, m, N)</text>
    <line x1="20" y1="58" x2="138" y2="58" stroke="#dbe5e8" stroke-width="1" stroke-dasharray="3,3"/>
    <text x="79" y="78" text-anchor="middle" font-size="11.5" font-weight="700" fill="#0f172a">Multiple testing</text>
    <text x="79" y="96" text-anchor="middle" font-size="10.5" fill="#64748b">BH / Bonferroni</text>
    <text x="79" y="114" text-anchor="middle" font-size="10.5" fill="#64748b">→ adj.p</text>
  </g>

  <!-- Box 3: ranked result table — one-direction ramp (primary→accent→faint) -->
  <g transform="translate(668, 548)">
    <rect x="0" y="0" width="214" height="128" rx="7" fill="#fdf6e7" stroke="#dbe5e8" stroke-width="1"/>
    <text x="107" y="22" text-anchor="middle" font-size="12" font-weight="700" fill="#0f172a">Motif pairs ranked by adj.p</text>
    <g font-size="10" fill="#64748b">
      <text x="14" y="42">pair</text>
      <text x="86" y="42">adj.p</text>
      <text x="140" y="42">−log10</text>
    </g>
    <line x1="12" y1="46" x2="202" y2="46" stroke="#dbe5e8" stroke-width="0.8"/>
    <text x="14" y="64" font-size="11" font-weight="700" fill="#0f766e">A + B</text>
    <text x="86" y="64" font-size="11" font-weight="700" fill="#0f766e">0.003</text>
    <rect x="140" y="55" width="60" height="11" rx="2" fill="#0f766e"/>
    <text x="14" y="86" font-size="11" fill="#334155">C + D</text>
    <text x="86" y="86" font-size="11" fill="#334155">0.21</text>
    <rect x="140" y="77" width="22" height="11" rx="2" fill="#b7791f"/>
    <text x="14" y="108" font-size="11" fill="#334155">A + C</text>
    <text x="86" y="108" font-size="11" fill="#334155">0.67</text>
    <rect x="140" y="99" width="6" height="11" rx="2" fill="#cbd5e1"/>
    <text x="107" y="122" text-anchor="middle" font-size="9" fill="#64748b">teal = significant</text>
  </g>

  <!-- arrows between boxes -->
  <path d="M470 612 L488 612" fill="none" stroke="#475569" stroke-width="1.5" marker-end="url(#arrSlate)"/>
  <path d="M648 612 L666 612" fill="none" stroke="#475569" stroke-width="1.5" marker-end="url(#arrSlate)"/>

  <text x="550" y="710" text-anchor="middle" font-size="10.5" fill="#94a3b8">Note: A+B means both motifs co-occur within the same promoter; PMET does not require proximity. FIMO hits with excessive overlap are filtered out.</text>
</svg>
