<svg xmlns="http://www.w3.org/2000/svg" viewBox="0 0 1100 490" role="img" aria-labelledby="gff3cn-title gff3cn-desc" lang="zh-CN" font-family="-apple-system, BlinkMacSystemFont, 'Segoe UI', 'Microsoft YaHei', 'PingFang SC', Arial, sans-serif">
  <title id="gff3cn-title">elements.sh -e 选项与索引到的基因区段对照</title>
  <desc id="gff3cn-desc">以单个基因为参照（启动子、5'UTR、CDS×3 外显子、3'UTR、TSS、TTS），逐行列出 -e 5UTR / 3UTR / CDS / exon / mRNA 五种选项各自索引到的区间：5UTR 仅五端 UTR，3UTR 仅三端 UTR，CDS 每个编码外显子一段，exon 含 UTR 部分的整外显子，mRNA 以 -m Yes 或 -m No 决定是否含内含子。底部注：启动子区域由 promoter.sh 推断而非 elements.sh；-s longest / -s merged 决定多 isoform 处理策略。</desc>
  <defs>
    <pattern id="hatch-cn" patternUnits="userSpaceOnUse" width="6" height="6" patternTransform="rotate(45)">
      <line x1="0" y1="0" x2="0" y2="6" stroke="#b7791f" stroke-width="1.5"/>
    </pattern>
    <pattern id="hatch-dim-cn" patternUnits="userSpaceOnUse" width="6" height="6" patternTransform="rotate(45)">
      <line x1="0" y1="0" x2="0" y2="6" stroke="#cbd5e1" stroke-width="1.5"/>
    </pattern>
    <symbol id="dimmed-cn" overflow="visible">
      <rect x="110" y="-13" width="120" height="26" rx="3" fill="url(#hatch-dim-cn)" stroke="#dbe5e8" stroke-width="1" opacity="0.7"/>
      <rect x="231" y="-12" width="48" height="24" fill="#f1f5f9" stroke="#dbe5e8" stroke-width="1"/>
      <rect x="280" y="-12" width="79" height="24" fill="#f1f5f9" stroke="#dbe5e8" stroke-width="1"/>
      <line x1="360" y1="0" x2="395" y2="-9" stroke="#dbe5e8" stroke-width="1"/>
      <line x1="395" y1="-9" x2="430" y2="0" stroke="#dbe5e8" stroke-width="1"/>
      <rect x="430" y="-13" width="110" height="26" fill="#f1f5f9" stroke="#dbe5e8" stroke-width="1"/>
      <line x1="540" y1="0" x2="575" y2="-9" stroke="#dbe5e8" stroke-width="1"/>
      <line x1="575" y1="-9" x2="610" y2="0" stroke="#dbe5e8" stroke-width="1"/>
      <rect x="611" y="-12" width="79" height="24" fill="#f1f5f9" stroke="#dbe5e8" stroke-width="1"/>
      <rect x="691" y="-12" width="48" height="24" fill="#f1f5f9" stroke="#dbe5e8" stroke-width="1"/>
    </symbol>
  </defs>

  <rect x="0" y="0" width="1100" height="490" rx="14" fill="#ffffff"/>

  <text x="550" y="28" text-anchor="middle" font-size="18" font-weight="700" fill="#0f172a">每种 <tspan font-family="ui-monospace, SF Mono, Menlo, monospace" fill="#8a4cbe">-e</tspan> 选项索引的区域（以一条基因为例）</text>

  <rect x="20" y="44" width="1060" height="378" rx="10" fill="#f7faf9" stroke="#dbe5e8" stroke-width="1"/>

  <text x="20" y="78" font-size="11" font-weight="700" fill="#0f172a">基因结构</text>
  <text x="20" y="92" font-size="9" fill="#64748b">（参照）</text>

  <rect x="110" y="65" width="120" height="34" rx="3" fill="url(#hatch-cn)" stroke="#b7791f" stroke-width="1.2" opacity="0.85"/>
  <text x="170" y="87" text-anchor="middle" font-size="11" font-weight="700" fill="#7a4d10">启动子</text>
  <text x="170" y="113" text-anchor="middle" font-size="9" fill="#7a4d10">TSS 上游 ~1 kb</text>

  <line x1="230" y1="55" x2="230" y2="105" stroke="#b7791f" stroke-width="1.5"/>
  <polygon points="225,55 230,46 235,55" fill="#b7791f"/>
  <text x="230" y="40" text-anchor="middle" font-size="10" font-weight="700" fill="#7a4d10">TSS</text>

  <rect x="230" y="65" width="130" height="34" fill="none" stroke="#475569" stroke-width="1" stroke-dasharray="3,2"/>
  <rect x="231" y="66" width="48" height="32" fill="#d4e3fc" stroke="#1f6feb" stroke-width="1"/>
  <text x="255" y="86" text-anchor="middle" font-size="9" font-weight="700" fill="#0d3a8c">5'UTR</text>
  <rect x="280" y="66" width="79" height="32" fill="#bdded8" stroke="#0f766e" stroke-width="1"/>
  <text x="319" y="86" text-anchor="middle" font-size="9" font-weight="700" fill="#134e4a">CDS</text>
  <text x="295" y="113" text-anchor="middle" font-size="9" fill="#64748b">外显子 1</text>

  <line x1="360" y1="82" x2="395" y2="70" stroke="#94a3b8" stroke-width="1.5"/>
  <line x1="395" y1="70" x2="430" y2="82" stroke="#94a3b8" stroke-width="1.5"/>
  <text x="395" y="60" text-anchor="middle" font-size="9" fill="#64748b">内含子</text>

  <rect x="430" y="65" width="110" height="34" fill="#bdded8" stroke="#0f766e" stroke-width="1"/>
  <text x="485" y="86" text-anchor="middle" font-size="10" font-weight="700" fill="#134e4a">CDS</text>
  <text x="485" y="113" text-anchor="middle" font-size="9" fill="#64748b">外显子 2</text>

  <line x1="540" y1="82" x2="575" y2="70" stroke="#94a3b8" stroke-width="1.5"/>
  <line x1="575" y1="70" x2="610" y2="82" stroke="#94a3b8" stroke-width="1.5"/>
  <text x="575" y="60" text-anchor="middle" font-size="9" fill="#64748b">内含子</text>

  <rect x="610" y="65" width="130" height="34" fill="none" stroke="#475569" stroke-width="1" stroke-dasharray="3,2"/>
  <rect x="611" y="66" width="79" height="32" fill="#bdded8" stroke="#0f766e" stroke-width="1"/>
  <text x="650" y="86" text-anchor="middle" font-size="9" font-weight="700" fill="#134e4a">CDS</text>
  <rect x="691" y="66" width="48" height="32" fill="#fde9c6" stroke="#b7791f" stroke-width="1"/>
  <text x="715" y="86" text-anchor="middle" font-size="9" font-weight="700" fill="#7a4d10">3'UTR</text>
  <text x="675" y="113" text-anchor="middle" font-size="9" fill="#64748b">外显子 3</text>

  <line x1="740" y1="55" x2="740" y2="105" stroke="#64748b" stroke-width="1.2"/>
  <text x="740" y="40" text-anchor="middle" font-size="10" font-weight="700" fill="#475569">TTS</text>

  <text x="810" y="73" font-size="11" font-weight="700" fill="#0f172a">实际索引到的区间</text>
  <text x="810" y="86" font-size="9" fill="#64748b">（GFF3 行 + 每基因 fragment 数）</text>

  <line x1="20" y1="135" x2="1080" y2="135" stroke="#dbe5e8" stroke-width="1"/>

  <g transform="translate(0,170)" aria-label="-e 5UTR：仅索引 5' UTR">
    <text x="100" y="3" text-anchor="end" font-family="ui-monospace, SF Mono, Menlo, monospace" font-size="12" font-weight="700" fill="#1f6feb">-e 5UTR</text>
    <use href="#dimmed-cn"/>
    <rect x="231" y="-12" width="48" height="24" fill="#d4e3fc" stroke="#1f6feb" stroke-width="1.5"/>
    <text x="810" y="0" font-size="11" fill="#0d3a8c" font-weight="700">five_prime_UTR 行</text>
    <text x="810" y="14" font-size="10" fill="#475569">→ 每基因 1 个 fragment（5'UTR 整段）</text>
  </g>

  <g transform="translate(0,215)" aria-label="-e 3UTR：仅索引 3' UTR">
    <text x="100" y="3" text-anchor="end" font-family="ui-monospace, SF Mono, Menlo, monospace" font-size="12" font-weight="700" fill="#b7791f">-e 3UTR</text>
    <use href="#dimmed-cn"/>
    <rect x="691" y="-12" width="48" height="24" fill="#fde9c6" stroke="#b7791f" stroke-width="1.5"/>
    <text x="810" y="0" font-size="11" fill="#7a4d10" font-weight="700">three_prime_UTR 行</text>
    <text x="810" y="14" font-size="10" fill="#475569">→ 每基因 1 个 fragment（3'UTR 整段）</text>
  </g>

  <g transform="translate(0,260)" aria-label="-e CDS：仅索引编码外显子片段（不含内含子和 UTR）">
    <text x="100" y="3" text-anchor="end" font-family="ui-monospace, SF Mono, Menlo, monospace" font-size="12" font-weight="700" fill="#0f766e">-e CDS</text>
    <use href="#dimmed-cn"/>
    <rect x="280" y="-12" width="79" height="24" fill="#bdded8" stroke="#0f766e" stroke-width="1.5"/>
    <rect x="430" y="-13" width="110" height="26" fill="#bdded8" stroke="#0f766e" stroke-width="1.5"/>
    <rect x="611" y="-12" width="79" height="24" fill="#bdded8" stroke="#0f766e" stroke-width="1.5"/>
    <text x="810" y="0" font-size="11" fill="#134e4a" font-weight="700">CDS 行</text>
    <text x="810" y="14" font-size="10" fill="#475569">→ 每个编码外显子片段一段</text>
    <text x="810" y="26" font-size="10" fill="#475569">（不含 intron 和 UTR）</text>
  </g>

  <g transform="translate(0,310)" aria-label="-e exon：索引整个外显子，含 UTR 部分">
    <text x="100" y="3" text-anchor="end" font-family="ui-monospace, SF Mono, Menlo, monospace" font-size="12" font-weight="700" fill="#334155">-e exon</text>
    <use href="#dimmed-cn"/>
    <rect x="231" y="-12" width="48" height="24" fill="#d4e3fc" stroke="#1f6feb" stroke-width="1"/>
    <rect x="280" y="-12" width="79" height="24" fill="#bdded8" stroke="#0f766e" stroke-width="1"/>
    <rect x="230" y="-13" width="130" height="26" fill="none" stroke="#334155" stroke-width="2"/>
    <rect x="430" y="-12" width="110" height="24" fill="#bdded8" stroke="#0f766e" stroke-width="1"/>
    <rect x="430" y="-13" width="110" height="26" fill="none" stroke="#334155" stroke-width="2"/>
    <rect x="611" y="-12" width="79" height="24" fill="#bdded8" stroke="#0f766e" stroke-width="1"/>
    <rect x="691" y="-12" width="48" height="24" fill="#fde9c6" stroke="#b7791f" stroke-width="1"/>
    <rect x="610" y="-13" width="130" height="26" fill="none" stroke="#334155" stroke-width="2"/>
    <text x="810" y="0" font-size="11" fill="#334155" font-weight="700">exon 行</text>
    <text x="810" y="14" font-size="10" fill="#475569">→ 每个完整外显子一段</text>
    <text x="810" y="26" font-size="10" fill="#475569">（含 UTR 部分的外显子整段都进）</text>
  </g>

  <g transform="translate(0,372)" aria-label="-e mRNA：TSS→TTS 整段；-m No 改为 CDS_start→CDS_end">
    <text x="100" y="3" text-anchor="end" font-family="ui-monospace, SF Mono, Menlo, monospace" font-size="12" font-weight="700" fill="#8a4cbe">-e mRNA</text>
    <use href="#dimmed-cn"/>

    <text x="230" y="-19" font-size="9" font-weight="700" fill="#8a4cbe"><tspan font-family="ui-monospace, SF Mono, Menlo, monospace">-m Yes</tspan>（默认）：</text>

    <rect x="230" y="-13" width="510" height="26" fill="#e0d4f0" stroke="#8a4cbe" stroke-width="1.5" opacity="0.9"/>
    <text x="485" y="3" text-anchor="middle" font-size="10" font-weight="700" fill="#5e2d8c">TSS → TTS（含 intron）</text>

    <line x1="280" y1="13" x2="280" y2="20" stroke="#5e2d8c" stroke-width="1" stroke-dasharray="2,2"/>
    <line x1="690" y1="13" x2="690" y2="20" stroke="#5e2d8c" stroke-width="1" stroke-dasharray="2,2"/>

    <line x1="280" y1="20" x2="690" y2="20" stroke="#5e2d8c" stroke-width="1.5"/>
    <line x1="280" y1="17" x2="280" y2="23" stroke="#5e2d8c" stroke-width="1.5"/>
    <line x1="690" y1="17" x2="690" y2="23" stroke="#5e2d8c" stroke-width="1.5"/>
    <text x="485" y="33" text-anchor="middle" font-size="9" font-weight="700" fill="#8a4cbe"><tspan font-family="ui-monospace, SF Mono, Menlo, monospace">-m No</tspan>：CDS_start → CDS_end</text>

    <text x="810" y="0" font-size="11" fill="#5e2d8c" font-weight="700">mRNA 行</text>
    <text x="810" y="14" font-size="10" fill="#475569">→ 每基因一个连续 span</text>
  </g>

  <rect x="20" y="434" width="1060" height="48" rx="6" fill="#f7faf9" stroke="#dbe5e8" stroke-width="1"/>
  <text x="40" y="453" font-size="10" fill="#475569">
    <tspan font-weight="700" fill="#0f172a">注：</tspan>启动子区域不属于 <tspan font-family="ui-monospace, SF Mono, Menlo, monospace">elements.sh</tspan> — 由 <tspan font-family="ui-monospace, SF Mono, Menlo, monospace">promoter.sh</tspan> 在 TSS 上游推断（GFF3 无原生类型）。
  </text>
  <text x="40" y="471" font-size="10" fill="#475569">
    <tspan font-family="ui-monospace, SF Mono, Menlo, monospace">-s longest</tspan> 先按基因压成单 isoform；<tspan font-family="ui-monospace, SF Mono, Menlo, monospace">-s merged</tspan> 把所有 isoform 的 fragment 取并集。
  </text>
</svg>
