<svg xmlns="http://www.w3.org/2000/svg" viewBox="0 0 1100 490" font-family="Arial, sans-serif">
  <defs>
    <pattern id="hatch-cn" patternUnits="userSpaceOnUse" width="6" height="6" patternTransform="rotate(45)">
      <line x1="0" y1="0" x2="0" y2="6" stroke="#b07040" stroke-width="1.5"/>
    </pattern>
    <pattern id="hatch-dim-cn" patternUnits="userSpaceOnUse" width="6" height="6" patternTransform="rotate(45)">
      <line x1="0" y1="0" x2="0" y2="6" stroke="#bbb" stroke-width="1.5"/>
    </pattern>
  </defs>

  <!-- 显式白色背景 + 圆角 -->
  <rect x="0" y="0" width="1100" height="490" rx="14" fill="#ffffff"/>

  <!-- Title -->
  <text x="550" y="28" text-anchor="middle" font-size="18" font-weight="bold" fill="#222">每种 <tspan font-family="Menlo, Consolas, monospace" fill="#0d47a1">-e</tspan> 选项索引的区域（以一条基因为例）</text>

  <!-- 主内容面板 -->
  <rect x="20" y="44" width="1060" height="378" rx="10" fill="#f9f9f9" stroke="#ddd" stroke-width="1"/>

  <!-- ============ REFERENCE GENE ============ -->
  <text x="20" y="78" font-size="11" font-weight="bold" fill="#333">基因结构</text>
  <text x="20" y="92" font-size="9" fill="#888">（参照）</text>

  <!-- promoter -->
  <rect x="110" y="65" width="120" height="34" rx="3" fill="url(#hatch-cn)" stroke="#b07040" stroke-width="1.5" opacity="0.85"/>
  <text x="170" y="87" text-anchor="middle" font-size="11" font-weight="bold" fill="#6b3410">启动子</text>
  <text x="170" y="113" text-anchor="middle" font-size="9" fill="#8b4513">TSS 上游 ~1 kb</text>

  <!-- TSS marker -->
  <line x1="230" y1="55" x2="230" y2="105" stroke="#d32f2f" stroke-width="1.5"/>
  <polygon points="225,55 230,46 235,55" fill="#d32f2f"/>
  <text x="230" y="40" text-anchor="middle" font-size="10" font-weight="bold" fill="#d32f2f">TSS</text>

  <!-- exon1 outline (5'UTR + CDS portion) -->
  <rect x="230" y="65" width="130" height="34" fill="none" stroke="#333" stroke-width="1" stroke-dasharray="3,2"/>
  <rect x="231" y="66" width="48" height="32" fill="#81d4fa" stroke="#0288d1" stroke-width="1"/>
  <text x="255" y="86" text-anchor="middle" font-size="9" font-weight="bold" fill="#01579b">5'UTR</text>
  <rect x="280" y="66" width="79" height="32" fill="#66bb6a" stroke="#2e7d32" stroke-width="1"/>
  <text x="319" y="86" text-anchor="middle" font-size="9" font-weight="bold" fill="#fff">CDS</text>
  <text x="295" y="113" text-anchor="middle" font-size="9" fill="#666">外显子 1</text>

  <!-- intron 1 -->
  <line x1="360" y1="82" x2="395" y2="70" stroke="#888" stroke-width="1.5"/>
  <line x1="395" y1="70" x2="430" y2="82" stroke="#888" stroke-width="1.5"/>
  <text x="395" y="60" text-anchor="middle" font-size="9" fill="#888">内含子</text>

  <!-- exon 2 (pure CDS) -->
  <rect x="430" y="65" width="110" height="34" rx="0" fill="#66bb6a" stroke="#2e7d32" stroke-width="1.2"/>
  <text x="485" y="86" text-anchor="middle" font-size="10" font-weight="bold" fill="#fff">CDS</text>
  <text x="485" y="113" text-anchor="middle" font-size="9" fill="#666">外显子 2</text>

  <!-- intron 2 -->
  <line x1="540" y1="82" x2="575" y2="70" stroke="#888" stroke-width="1.5"/>
  <line x1="575" y1="70" x2="610" y2="82" stroke="#888" stroke-width="1.5"/>
  <text x="575" y="60" text-anchor="middle" font-size="9" fill="#888">内含子</text>

  <!-- exon 3 outline (CDS + 3'UTR) -->
  <rect x="610" y="65" width="130" height="34" fill="none" stroke="#333" stroke-width="1" stroke-dasharray="3,2"/>
  <rect x="611" y="66" width="79" height="32" fill="#66bb6a" stroke="#2e7d32" stroke-width="1"/>
  <text x="650" y="86" text-anchor="middle" font-size="9" font-weight="bold" fill="#fff">CDS</text>
  <rect x="691" y="66" width="48" height="32" fill="#ffcc80" stroke="#ef6c00" stroke-width="1"/>
  <text x="715" y="86" text-anchor="middle" font-size="9" font-weight="bold" fill="#bf360c">3'UTR</text>
  <text x="675" y="113" text-anchor="middle" font-size="9" fill="#666">外显子 3</text>

  <!-- TTS marker -->
  <line x1="740" y1="55" x2="740" y2="105" stroke="#555" stroke-width="1.2"/>
  <text x="740" y="40" text-anchor="middle" font-size="10" font-weight="bold" fill="#555">TTS</text>

  <!-- column header for description -->
  <text x="810" y="73" font-size="11" font-weight="bold" fill="#444">实际索引到的区间</text>
  <text x="810" y="86" font-size="9" fill="#888">（GFF3 行 + 每基因 fragment 数）</text>

  <!-- divider -->
  <line x1="20" y1="135" x2="1080" y2="135" stroke="#bbb" stroke-width="1"/>

  <symbol id="dimmed-cn" overflow="visible">
    <rect x="110" y="-13" width="120" height="26" rx="3" fill="url(#hatch-dim-cn)" stroke="#ccc" stroke-width="1" opacity="0.5"/>
    <rect x="231" y="-12" width="48" height="24" fill="#e0e0e0" stroke="#ccc" stroke-width="1"/>
    <rect x="280" y="-12" width="79" height="24" fill="#e0e0e0" stroke="#ccc" stroke-width="1"/>
    <line x1="360" y1="0" x2="395" y2="-9" stroke="#ddd" stroke-width="1"/>
    <line x1="395" y1="-9" x2="430" y2="0" stroke="#ddd" stroke-width="1"/>
    <rect x="430" y="-13" width="110" height="26" fill="#e0e0e0" stroke="#ccc" stroke-width="1"/>
    <line x1="540" y1="0" x2="575" y2="-9" stroke="#ddd" stroke-width="1"/>
    <line x1="575" y1="-9" x2="610" y2="0" stroke="#ddd" stroke-width="1"/>
    <rect x="611" y="-12" width="79" height="24" fill="#e0e0e0" stroke="#ccc" stroke-width="1"/>
    <rect x="691" y="-12" width="48" height="24" fill="#e0e0e0" stroke="#ccc" stroke-width="1"/>
  </symbol>

  <!-- ============ -e 5UTR ============ -->
  <g transform="translate(0,170)">
    <text x="100" y="3" text-anchor="end" font-family="Menlo, Consolas, monospace" font-size="12" font-weight="bold" fill="#0288d1">-e 5UTR</text>
    <use href="#dimmed-cn"/>
    <rect x="231" y="-12" width="48" height="24" fill="#81d4fa" stroke="#0288d1" stroke-width="1.5"/>
    <text x="810" y="0" font-size="11" fill="#01579b" font-weight="bold">five_prime_UTR 行</text>
    <text x="810" y="14" font-size="10" fill="#555">→ 每基因 1 个 fragment（5'UTR 整段）</text>
  </g>

  <!-- ============ -e 3UTR ============ -->
  <g transform="translate(0,215)">
    <text x="100" y="3" text-anchor="end" font-family="Menlo, Consolas, monospace" font-size="12" font-weight="bold" fill="#ef6c00">-e 3UTR</text>
    <use href="#dimmed-cn"/>
    <rect x="691" y="-12" width="48" height="24" fill="#ffcc80" stroke="#ef6c00" stroke-width="1.5"/>
    <text x="810" y="0" font-size="11" fill="#bf360c" font-weight="bold">three_prime_UTR 行</text>
    <text x="810" y="14" font-size="10" fill="#555">→ 每基因 1 个 fragment（3'UTR 整段）</text>
  </g>

  <!-- ============ -e CDS ============ -->
  <g transform="translate(0,260)">
    <text x="100" y="3" text-anchor="end" font-family="Menlo, Consolas, monospace" font-size="12" font-weight="bold" fill="#2e7d32">-e CDS</text>
    <use href="#dimmed-cn"/>
    <rect x="280" y="-12" width="79" height="24" fill="#66bb6a" stroke="#2e7d32" stroke-width="1.5"/>
    <rect x="430" y="-13" width="110" height="26" fill="#66bb6a" stroke="#2e7d32" stroke-width="1.5"/>
    <rect x="611" y="-12" width="79" height="24" fill="#66bb6a" stroke="#2e7d32" stroke-width="1.5"/>
    <text x="810" y="0" font-size="11" fill="#1b5e20" font-weight="bold">CDS 行</text>
    <text x="810" y="14" font-size="10" fill="#555">→ 每个编码外显子片段一段</text>
    <text x="810" y="26" font-size="10" fill="#555">（不含 intron 和 UTR）</text>
  </g>

  <!-- ============ -e exon ============ -->
  <g transform="translate(0,310)">
    <text x="100" y="3" text-anchor="end" font-family="Menlo, Consolas, monospace" font-size="12" font-weight="bold" fill="#33691e">-e exon</text>
    <use href="#dimmed-cn"/>
    <!-- exon1: 5'UTR (蓝 native) + CDS 部分 (绿 native) 在外层 dark-green 框内 -->
    <rect x="231" y="-12" width="48" height="24" fill="#81d4fa" stroke="#0288d1" stroke-width="1"/>
    <rect x="280" y="-12" width="79" height="24" fill="#66bb6a" stroke="#2e7d32" stroke-width="1"/>
    <rect x="230" y="-13" width="130" height="26" fill="none" stroke="#33691e" stroke-width="2"/>
    <!-- exon2: 纯 CDS 在外层 dark-green 框内 -->
    <rect x="430" y="-12" width="110" height="24" fill="#66bb6a" stroke="#2e7d32" stroke-width="1"/>
    <rect x="430" y="-13" width="110" height="26" fill="none" stroke="#33691e" stroke-width="2"/>
    <!-- exon3: CDS 部分 (绿 native) + 3'UTR (橙 native) 在外层 dark-green 框内 -->
    <rect x="611" y="-12" width="79" height="24" fill="#66bb6a" stroke="#2e7d32" stroke-width="1"/>
    <rect x="691" y="-12" width="48" height="24" fill="#ffcc80" stroke="#ef6c00" stroke-width="1"/>
    <rect x="610" y="-13" width="130" height="26" fill="none" stroke="#33691e" stroke-width="2"/>
    <text x="810" y="0" font-size="11" fill="#33691e" font-weight="bold">exon 行</text>
    <text x="810" y="14" font-size="10" fill="#555">→ 每个完整外显子一段</text>
    <text x="810" y="26" font-size="10" fill="#555">（含 UTR 部分的外显子整段都进）</text>
  </g>

  <!-- ============ -e mRNA ============ -->
  <g transform="translate(0,372)">
    <text x="100" y="3" text-anchor="end" font-family="Menlo, Consolas, monospace" font-size="12" font-weight="bold" fill="#6a1b9a">-e mRNA</text>
    <use href="#dimmed-cn"/>

    <!-- "-m Yes (默认)" 标签 -->
    <text x="230" y="-19" font-size="9" font-weight="bold" fill="#6a1b9a"><tspan font-family="Menlo, Consolas, monospace">-m Yes</tspan>（默认）：</text>

    <!-- 主紫色条 = -m Yes 默认 = TSS → TTS, 含 intron -->
    <rect x="230" y="-13" width="510" height="26" fill="#ce93d8" stroke="#6a1b9a" stroke-width="2" opacity="0.85"/>
    <text x="485" y="3" text-anchor="middle" font-size="10" font-weight="bold" fill="#4a148c">TSS → TTS（含 intron）</text>

    <!-- 在 CDS_start / CDS_end 处下垂虚线 -->
    <line x1="280" y1="13" x2="280" y2="20" stroke="#4a148c" stroke-width="1" stroke-dasharray="2,2"/>
    <line x1="690" y1="13" x2="690" y2="20" stroke="#4a148c" stroke-width="1" stroke-dasharray="2,2"/>

    <!-- -m No bracket: CDS_start → CDS_end -->
    <line x1="280" y1="20" x2="690" y2="20" stroke="#4a148c" stroke-width="1.5"/>
    <line x1="280" y1="17" x2="280" y2="23" stroke="#4a148c" stroke-width="1.5"/>
    <line x1="690" y1="17" x2="690" y2="23" stroke="#4a148c" stroke-width="1.5"/>
    <text x="485" y="33" text-anchor="middle" font-size="9" font-weight="bold" fill="#6a1b9a"><tspan font-family="Menlo, Consolas, monospace">-m No</tspan>：CDS_start → CDS_end</text>

    <!-- 右侧描述 -->
    <text x="810" y="0" font-size="11" fill="#4a148c" font-weight="bold">mRNA 行</text>
    <text x="810" y="14" font-size="10" fill="#555">→ 每基因一个连续 span</text>
  </g>

  <!-- 底部 info-box（参考 promoter-gap-comparison 的提示框样式） -->
  <rect x="20" y="434" width="1060" height="48" rx="6" fill="#e3f2fd" stroke="#90caf9" stroke-width="1"/>
  <text x="40" y="453" font-size="10" fill="#0d47a1">
    <tspan font-weight="bold">注：</tspan>启动子区域不属于 <tspan font-family="Menlo, Consolas, monospace">elements.sh</tspan> — 由 <tspan font-family="Menlo, Consolas, monospace">promoter.sh</tspan> 在 TSS 上游推断（GFF3 无原生类型）。
  </text>
  <text x="40" y="471" font-size="10" fill="#0d47a1">
    <tspan font-family="Menlo, Consolas, monospace">-s longest</tspan> 先按基因压成单 isoform；<tspan font-family="Menlo, Consolas, monospace">-s merged</tspan> 把所有 isoform 的 fragment 取并集。
  </text>
</svg>
